<svg version="1.1" id="Layer_1" xmlns="http://www.w3.org/2000/svg" xmlns:xlink="http://www.w3.org/1999/xlink" x="0px" y="0px"
	 width="100%" viewBox="0 0 512 512" enable-background="new 0 0 512 512" xml:space="preserve">
<path fill="#FFC7D0" opacity="1.000000" stroke="none" 
	d="
M513.000000,225.000000 
	C513.000000,246.020889 513.000000,267.041779 512.635498,288.221466 
	C511.846588,289.220276 511.219971,290.016663 511.028015,290.906830 
	C508.041443,304.754486 505.678070,318.765411 502.034058,332.435608 
	C496.658752,352.600403 487.794281,371.377563 476.972809,389.214722 
	C464.336975,410.042603 449.279053,428.883636 430.876678,444.721375 
	C430.472748,442.203461 430.031464,440.077026 430.029968,437.950256 
	C429.992004,383.621704 430.000000,329.293091 430.000000,274.964508 
	C430.000000,208.970261 429.998566,142.976028 430.004700,76.981781 
	C430.004974,73.972542 430.073608,70.963303 430.420898,68.073883 
	C440.807678,79.280914 451.434174,89.923210 460.838318,101.553856 
	C477.209503,121.801033 489.289398,144.594330 498.033417,169.134827 
	C504.273682,186.648361 509.378754,204.429932 511.074493,223.049606 
	C511.138489,223.752365 512.332581,224.352203 513.000000,225.000000 
z"/>
<path fill="#FFEEF1" opacity="1.000000" stroke="none" 
	d="
M0.999998,289.000000 
	C1.000000,267.645782 1.000000,246.291550 1.361178,224.774277 
	C2.140530,223.938889 2.806312,223.311493 2.937767,222.587112 
	C4.005014,216.706116 4.863158,210.786041 5.988073,204.916809 
	C11.827950,174.447250 23.288240,146.208313 40.015190,120.114738 
	C48.783695,106.436111 58.086540,93.147125 70.124573,82.276840 
	C70.527519,84.793686 70.969833,86.918732 70.970474,89.043900 
	C71.003937,200.619003 71.007515,312.194122 70.956573,423.769196 
	C70.955307,426.552887 70.308098,429.336243 69.647537,431.990234 
	C62.905792,424.092163 56.199528,416.535614 50.107079,408.512909 
	C35.449585,389.211487 24.130913,368.032928 16.014473,345.199005 
	C9.699075,327.431885 4.453305,309.379974 2.900358,290.449127 
	C2.856766,289.917725 1.659378,289.480927 0.999998,289.000000 
z"/>
<path fill="#000000" opacity="1.000000" stroke="none" 
	d="
M0.999998,289.468658 
	C1.659378,289.480927 2.856766,289.917725 2.900358,290.449127 
	C4.453305,309.379974 9.699075,327.431885 16.014473,345.199005 
	C24.130913,368.032928 35.449585,389.211487 50.107079,408.512909 
	C56.199528,416.535614 62.905792,424.092163 69.764862,432.301025 
	C79.581306,441.442596 88.566292,450.635071 98.473755,458.693390 
	C106.754890,465.428894 116.115456,470.837280 125.325783,476.981506 
	C127.988930,478.504303 130.317993,479.889801 132.660645,481.251953 
	C150.051163,491.363617 168.459106,498.983795 188.356995,504.003326 
	C200.004745,506.449371 211.299820,508.692078 222.567749,511.063873 
	C223.474182,511.254669 224.193649,512.333679 225.000000,513.000000 
	C150.406296,513.000000 75.812599,513.000000 1.000000,513.000000 
	C1.000000,438.645905 1.000000,364.291626 0.999998,289.468658 
z"/>
<path fill="#000000" opacity="1.000000" stroke="none" 
	d="
M513.000000,224.531342 
	C512.332581,224.352203 511.138489,223.752365 511.074493,223.049606 
	C509.378754,204.429932 504.273682,186.648361 498.033417,169.134827 
	C489.289398,144.594330 477.209503,121.801033 460.838318,101.553856 
	C451.434174,89.923210 440.807678,79.280914 430.288635,67.757774 
	C421.004059,60.226082 412.433014,52.752739 403.232422,46.157593 
	C396.250000,41.152500 388.466095,37.265526 380.902283,32.555912 
	C370.509766,27.542742 360.253815,22.854673 349.656433,18.008354 
	C348.019409,17.233950 346.779999,16.421652 345.419525,16.032167 
	C332.623840,12.368949 319.807465,8.777956 306.574066,5.091160 
	C300.904419,4.337329 295.649567,3.711520 290.423096,2.902345 
	C289.863953,2.815778 289.470367,1.659854 289.000000,0.999999 
	C363.593719,1.000000 438.187408,1.000000 513.000000,1.000000 
	C513.000000,75.354088 513.000000,149.708389 513.000000,224.531342 
z"/>
<path fill="#000000" opacity="1.000000" stroke="none" 
	d="
M431.044250,445.112732 
	C449.279053,428.883636 464.336975,410.042603 476.972809,389.214722 
	C487.794281,371.377563 496.658752,352.600403 502.034058,332.435608 
	C505.678070,318.765411 508.041443,304.754486 511.028015,290.906830 
	C511.219971,290.016663 511.846588,289.220276 512.635498,288.690125 
	C513.000000,363.593719 513.000000,438.187408 513.000000,513.000000 
	C438.645905,513.000000 364.291626,513.000000 289.159302,512.635864 
	C289.862701,511.847351 291.322632,511.312103 292.829651,511.019897 
	C296.874817,510.235535 300.940094,509.555084 305.408569,508.910645 
	C314.067413,506.988403 322.518219,505.583252 330.515198,502.850128 
	C342.547607,498.737762 354.262421,493.696106 366.480804,489.024353 
	C375.947632,483.993683 385.569702,479.735199 394.021759,473.808167 
	C406.790924,464.853851 418.744232,454.736115 431.044250,445.112732 
z"/>
<path fill="#000000" opacity="1.000000" stroke="none" 
	d="
M69.957878,81.885101 
	C58.086540,93.147125 48.783695,106.436111 40.015190,120.114738 
	C23.288240,146.208313 11.827950,174.447250 5.988073,204.916809 
	C4.863158,210.786041 4.005014,216.706116 2.937767,222.587112 
	C2.806312,223.311493 2.140530,223.938889 1.361178,224.305618 
	C1.000000,149.739456 1.000000,75.478920 1.000000,1.000000 
	C75.354088,1.000000 149.708389,1.000000 224.841125,1.363476 
	C221.917542,2.484845 218.194382,3.152811 214.517654,4.018162 
	C204.986221,6.261478 195.475220,8.591699 185.550140,10.940172 
	C184.180222,11.106607 183.147400,11.034240 182.262726,11.361883 
	C171.502731,15.346851 160.638580,19.091133 150.069839,23.536028 
	C144.110641,26.042280 138.647430,29.727814 132.592712,32.940247 
	C108.637802,45.687817 87.902863,62.009686 69.957878,81.885101 
z"/>
<path fill="#FFD8DE" opacity="1.000000" stroke="none" 
	d="
M304.997406,508.833344 
	C300.940094,509.555084 296.874817,510.235535 292.829651,511.019897 
	C291.322632,511.312103 289.862701,511.847351 288.690674,512.635864 
	C276.645782,513.000000 264.291534,513.000000 251.468658,512.531372 
	C250.999985,481.236816 251.040924,450.410767 250.901779,419.585541 
	C250.893112,417.665161 249.471832,415.751129 248.930573,413.577667 
	C251.993805,409.877869 255.050964,406.581451 257.543701,402.902588 
	C258.300079,401.786255 257.954590,399.416443 257.327972,397.958496 
	C254.741928,391.941803 251.047226,386.288544 249.246185,380.071167 
	C245.567993,367.373718 242.848984,354.398376 239.914032,341.121338 
	C240.397552,336.130432 240.701950,331.555695 241.300964,327.142029 
	C245.366791,334.070374 249.382812,340.717102 252.800095,347.658569 
	C254.375198,350.858063 254.778915,354.634247 255.750092,358.551910 
	C257.593475,367.055969 259.249939,375.194611 261.257965,383.245544 
	C262.709717,389.066162 265.777893,393.870422 271.600983,396.731659 
	C272.014435,395.780243 272.464447,395.067291 272.640472,394.292114 
	C276.132294,378.916779 279.694977,363.556122 282.985504,348.137482 
	C283.792999,344.353638 284.595856,340.191895 283.850586,336.518402 
	C280.490448,319.956879 268.671204,308.578522 258.181030,296.090240 
	C256.983826,293.967377 255.876541,292.132019 255.208038,290.204041 
	C257.042236,289.563690 259.543945,289.144684 259.625397,288.444244 
	C259.868469,286.353302 259.523041,284.010864 258.745514,282.025940 
	C257.486206,278.811005 255.699997,275.802399 254.409332,272.882446 
	C255.756500,274.113800 256.830566,275.169434 257.989990,276.543121 
	C263.032928,282.951416 267.990509,289.041718 273.076477,295.440338 
	C276.057861,299.213196 278.910828,302.677673 281.880188,306.463531 
	C284.690216,311.126495 287.728119,315.297974 289.981079,319.857330 
	C292.246521,324.441986 293.730804,329.412659 295.625427,334.654785 
	C295.497162,339.397369 295.300842,343.699341 294.931824,348.350372 
	C293.679626,353.390808 292.604340,358.083191 291.519989,362.773468 
	C288.150574,377.347351 284.763641,391.917206 281.412506,406.495331 
	C279.905243,413.052307 282.161407,415.844513 289.035583,415.912964 
	C291.695343,415.939453 294.356934,415.779266 297.454834,415.777588 
	C300.260101,415.924652 302.628265,415.998291 304.997528,416.536072 
	C304.998230,447.611237 304.997803,478.222290 304.997406,508.833344 
z"/>
<path fill="#FFDDE3" opacity="1.000000" stroke="none" 
	d="
M248.707764,413.834167 
	C249.471832,415.751129 250.893112,417.665161 250.901779,419.585541 
	C251.040924,450.410767 250.999985,481.236816 251.000000,512.531372 
	C242.645767,513.000000 234.291534,513.000000 225.468658,513.000000 
	C224.193649,512.333679 223.474182,511.254669 222.567749,511.063873 
	C211.299820,508.692078 200.004745,506.449371 188.357803,503.545288 
	C187.997391,473.301910 187.995850,443.686737 188.453522,414.020447 
	C192.615967,413.883759 196.319168,413.798126 200.484467,413.781250 
	C208.970200,413.805115 216.993866,413.760223 225.479675,413.786133 
	C233.530457,413.849365 241.119125,413.841766 248.707764,413.834167 
z"/>
<path fill="#FFD7DE" opacity="1.000000" stroke="none" 
	d="
M288.531372,0.999999 
	C289.470367,1.659854 289.863953,2.815778 290.423096,2.902345 
	C295.649567,3.711520 300.904419,4.337329 306.574677,5.514897 
	C306.665527,11.789986 306.053955,17.565908 306.044067,23.342861 
	C305.965118,69.564087 306.010651,115.785515 305.968445,162.006836 
	C305.966339,164.311127 306.959717,167.287018 303.029999,167.695755 
	C300.279999,163.151382 297.737762,158.897095 295.112335,154.316055 
	C289.369476,138.795547 276.244446,130.062134 265.095001,119.233673 
	C263.887299,117.668503 262.788727,116.394325 262.062195,114.932999 
	C262.956207,112.595787 263.927368,110.446892 263.933014,108.295448 
	C264.027008,72.530487 264.000000,36.765209 264.000000,1.000000 
	C272.020905,1.000000 280.041809,1.000000 288.531372,0.999999 
z"/>
<path fill="#FFDEE4" opacity="1.000000" stroke="none" 
	d="
M185.956070,10.887230 
	C195.475220,8.591699 204.986221,6.261478 214.517654,4.018162 
	C218.194382,3.152811 221.917542,2.484845 225.309784,1.363476 
	C225.750000,1.000000 226.500000,1.000000 227.612900,1.468549 
	C227.981842,34.239964 227.987885,66.542831 227.562424,98.898682 
	C220.758331,98.730309 214.385757,98.508965 207.549927,98.211411 
	C200.389938,98.069008 193.693207,98.002800 186.997559,97.471909 
	C186.999115,70.565971 187.024979,44.124649 186.954697,17.683578 
	C186.948685,15.417259 186.304047,13.152638 185.956070,10.887230 
z"/>
<path fill="#FFDBE1" opacity="1.000000" stroke="none" 
	d="
M227.993942,98.845688 
	C227.987885,66.542831 227.981842,34.239964 227.987900,1.468549 
	C239.687561,1.000000 251.375122,1.000000 263.531342,1.000000 
	C264.000000,36.765209 264.027008,72.530487 263.933014,108.295448 
	C263.927368,110.446892 262.956207,112.595787 261.783630,114.778618 
	C259.037140,112.959114 256.848999,111.200233 254.863693,109.236282 
	C249.819946,104.246834 244.112015,100.504135 236.570480,99.100983 
	C233.415543,98.951775 230.704742,98.898735 227.993942,98.845688 
z"/>
<path fill="#FFCDD5" opacity="1.000000" stroke="none" 
	d="
M430.876709,444.721405 
	C418.744232,454.736115 406.790924,464.853851 394.021759,473.808167 
	C385.569702,479.735199 375.947632,483.993683 366.167297,488.786957 
	C364.990173,486.192902 364.073730,483.812683 364.064484,481.428925 
	C363.959930,454.449463 363.994293,427.469421 364.438782,400.380035 
	C368.256805,400.192932 371.627441,400.115387 375.464111,400.091095 
	C381.952545,400.111267 387.974915,400.078156 394.463379,400.100403 
	C399.588989,400.172913 404.248718,400.224762 408.908020,400.198792 
	C415.223877,400.163635 417.002533,398.452789 417.004578,392.273895 
	C417.020630,343.347321 416.966339,294.420624 417.094238,245.494370 
	C417.105560,241.163437 415.260437,238.962555 411.460388,238.000061 
	C405.996948,236.616241 400.490753,235.401321 394.654968,233.940002 
	C389.537933,232.474014 384.768707,231.182312 380.062561,229.483521 
	C380.417084,226.622650 380.960815,224.169113 380.963135,221.715042 
	C381.022797,158.770401 381.025909,95.825699 381.038849,32.881016 
	C388.466095,37.265526 396.250000,41.152500 403.232422,46.157593 
	C412.433014,52.752739 421.004059,60.226082 429.978088,67.637955 
	C430.073608,70.963303 430.004974,73.972542 430.004700,76.981781 
	C429.998566,142.976028 430.000000,208.970261 430.000000,274.964508 
	C430.000000,329.293091 429.992004,383.621704 430.029968,437.950256 
	C430.031464,440.077026 430.472748,442.203461 430.876709,444.721405 
z"/>
<path fill="#FFE9EC" opacity="1.000000" stroke="none" 
	d="
M70.124573,82.276840 
	C87.902863,62.009686 108.637802,45.687817 132.603912,33.416306 
	C132.989395,55.229607 132.995621,76.624977 132.669128,98.184830 
	C125.311485,99.873421 119.456581,103.293999 114.626740,108.686264 
	C110.861130,112.890366 106.787437,116.822739 102.781647,120.806480 
	C97.198212,126.359215 96.175163,133.038559 97.502098,140.833908 
	C109.831779,140.833908 121.923767,140.833908 134.362946,140.944916 
	C138.161224,142.655914 141.612305,144.255920 145.043060,146.315918 
	C144.674973,150.204758 144.327225,153.633575 143.617325,157.014145 
	C141.179749,156.258865 139.104324,155.551849 136.783936,154.584167 
	C133.021500,153.557007 129.527145,152.292557 125.981720,152.127975 
	C118.671127,151.788605 111.333282,152.036575 104.006653,152.042007 
	C101.785393,152.043655 99.564133,152.042267 97.342873,152.042267 
	C96.953568,152.616547 96.564270,153.190842 96.174965,153.765121 
	C98.708275,157.459396 100.718414,161.698227 103.881454,164.737030 
	C110.939392,171.517761 118.572800,177.699509 125.796974,184.496490 
	C125.414803,186.996140 125.026680,189.124527 125.025993,191.253052 
	C124.995300,286.446472 124.998672,381.639923 124.998009,476.833374 
	C116.115456,470.837280 106.754890,465.428894 98.473755,458.693390 
	C88.566292,450.635071 79.581306,441.442596 70.079468,432.430542 
	C70.308098,429.336243 70.955307,426.552887 70.956573,423.769196 
	C71.007515,312.194122 71.003937,200.619003 70.970474,89.043900 
	C70.969833,86.918732 70.527519,84.793686 70.124573,82.276840 
z"/>
<path fill="#FFE4E8" opacity="1.000000" stroke="none" 
	d="
M125.325783,476.981506 
	C124.998672,381.639923 124.995300,286.446472 125.025993,191.253052 
	C125.026680,189.124527 125.414803,186.996140 126.103218,184.615997 
	C129.560791,186.686005 132.537354,189.007706 135.665771,191.635239 
	C145.222641,203.289413 158.271973,206.025055 172.277237,207.402191 
	C178.061829,209.701416 183.535355,211.835098 189.006287,214.419861 
	C188.655167,218.289856 188.306641,221.708771 187.586151,225.068466 
	C181.399994,222.900635 175.585815,220.792023 169.905914,218.732101 
	C169.359726,219.713394 169.098404,219.986267 169.061722,220.286591 
	C168.961746,221.104660 168.945877,221.933929 168.915680,222.759460 
	C168.573700,232.107086 172.271652,240.135269 177.069733,248.274887 
	C177.027435,290.632233 177.002014,332.508820 177.046249,374.385345 
	C177.047882,375.930298 177.729843,377.474518 178.064636,379.407166 
	C175.457428,387.975037 172.842072,396.143005 170.315216,404.338226 
	C168.252838,411.027039 170.432877,413.853668 177.585663,413.939392 
	C181.055237,413.980927 184.524765,414.027344 187.994308,414.071533 
	C187.995850,443.686737 187.997391,473.301910 187.998138,503.375153 
	C168.459106,498.983795 150.051163,491.363617 132.660645,481.251953 
	C130.317993,479.889801 127.988930,478.504303 125.325783,476.981506 
z"/>
<path fill="#FFD3DA" opacity="1.000000" stroke="none" 
	d="
M303.237732,167.985840 
	C306.959717,167.287018 305.966339,164.311127 305.968445,162.006836 
	C306.010651,115.785515 305.965118,69.564087 306.044067,23.342861 
	C306.053955,17.565908 306.665527,11.789986 306.997681,5.589848 
	C319.807465,8.777956 332.623840,12.368949 345.419525,16.032167 
	C346.779999,16.421652 348.019409,17.233950 349.657135,18.466389 
	C349.999512,84.307777 350.010681,149.532898 349.957275,214.757950 
	C349.955292,217.193848 349.324860,219.629227 348.583313,222.059219 
	C345.812378,221.588715 343.445435,221.123825 340.809814,220.449249 
	C336.745087,217.970108 332.949005,215.700684 329.055328,213.124847 
	C327.489594,210.876694 325.846069,209.041504 324.588806,206.971680 
	C321.698608,202.213394 318.996490,197.340866 316.182526,192.170013 
	C311.843903,183.878830 307.540833,175.932343 303.237732,167.985840 
z"/>
<path fill="#FFCFD7" opacity="1.000000" stroke="none" 
	d="
M348.987305,222.064850 
	C349.324860,219.629227 349.955292,217.193848 349.957275,214.757950 
	C350.010681,149.532898 349.999512,84.307777 349.998596,18.624640 
	C360.253815,22.854673 370.509766,27.542742 380.902283,32.555912 
	C381.025909,95.825699 381.022797,158.770401 380.963135,221.715042 
	C380.960815,224.169113 380.417084,226.622650 379.667114,229.503113 
	C378.167389,229.764404 377.126160,229.599030 375.777161,229.269562 
	C369.687012,227.829269 363.904633,226.553040 357.874695,225.064209 
	C354.747162,223.922684 351.867249,222.993774 348.987305,222.064850 
z"/>
<path fill="#FFD3DA" opacity="1.000000" stroke="none" 
	d="
M363.991425,400.489563 
	C363.994293,427.469421 363.959930,454.449463 364.064484,481.428925 
	C364.073730,483.812683 364.990173,486.192902 365.798767,488.812134 
	C354.262421,493.696106 342.547607,498.737762 330.515198,502.850128 
	C322.518219,505.583252 314.067413,506.988403 305.408569,508.910645 
	C304.997803,478.222290 304.998230,447.611237 305.450256,416.478088 
	C308.936493,415.866241 311.971069,415.776489 315.463226,415.768250 
	C319.948273,415.796906 323.975739,415.744019 328.458069,415.772949 
	C332.612915,415.800720 336.312958,415.746643 340.450256,415.769409 
	C347.918945,417.117340 352.658905,414.544189 354.870728,407.600098 
	C355.162933,406.682678 355.813110,405.879211 356.661621,405.015625 
	C360.270111,405.236542 361.197876,403.380859 361.399170,400.438873 
	C362.503601,400.383453 363.247498,400.436523 363.991425,400.489563 
z"/>
<path fill="#FFE3E7" opacity="1.000000" stroke="none" 
	d="
M133.001846,98.020348 
	C132.995621,76.624977 132.989395,55.229607 132.971985,33.358177 
	C138.647430,29.727814 144.110641,26.042280 150.069839,23.536028 
	C160.638580,19.091133 171.502731,15.346851 182.262726,11.361883 
	C183.147400,11.034240 184.180222,11.106607 185.550140,10.940171 
	C186.304047,13.152638 186.948685,15.417259 186.954697,17.683578 
	C187.024979,44.124649 186.999115,70.565971 186.625153,97.520950 
	C185.506287,98.115540 184.760925,98.196419 183.557205,98.196556 
	C176.393448,98.327629 169.688065,98.539444 162.605072,98.585587 
	C152.829926,98.415199 143.432358,98.410492 133.782166,98.292679 
	C133.353638,98.126495 133.177734,98.073425 133.001846,98.020348 
z"/>
<path fill="#FE5F87" opacity="1.000000" stroke="none" 
	d="
M315.005676,415.686707 
	C311.971069,415.776489 308.936493,415.866241 305.449158,416.013977 
	C302.628265,415.998291 300.260101,415.924652 297.449524,415.334290 
	C296.992920,393.522461 297.003479,372.227203 296.885864,350.932617 
	C296.880463,349.952301 295.724579,348.978302 295.104553,348.001343 
	C295.300842,343.699341 295.497162,339.397369 295.993591,334.380737 
	C296.523682,332.888458 296.953644,332.111084 296.954681,331.333099 
	C296.993408,302.423004 297.020660,273.512756 296.899963,244.603165 
	C296.894806,243.371567 295.469849,242.145889 294.833740,240.586212 
	C299.483612,235.495728 300.543762,229.793213 300.117645,223.412079 
	C299.733490,217.659500 299.914764,211.857788 300.073669,206.084000 
	C300.193848,201.716949 298.449677,199.158401 293.993774,198.244965 
	C293.649109,195.394470 293.072906,192.947388 293.044556,190.493973 
	C292.934906,181.010559 292.851685,171.521240 293.100494,162.043091 
	C293.165680,159.559708 294.463684,157.108688 295.195526,154.642807 
	C297.737762,158.897095 300.279999,163.151382 303.030029,167.695740 
	C307.540833,175.932343 311.843903,183.878830 316.001587,192.599854 
	C315.571136,194.823975 315.038055,196.273361 315.036896,197.723160 
	C314.994202,251.214218 314.979553,304.705383 315.099762,358.196198 
	C315.103516,359.864716 316.572052,361.529999 317.135529,363.467072 
	C313.045441,367.246063 313.967529,370.602753 316.871765,374.080444 
	C316.005463,376.103821 315.087158,377.927307 315.067383,379.760498 
	C314.938263,391.734741 315.003784,403.711060 315.005676,415.686707 
z"/>
<path fill="#FE7289" opacity="1.000000" stroke="none" 
	d="
M237.014618,99.197144 
	C244.112015,100.504135 249.819946,104.246834 254.863693,109.236282 
	C256.848999,111.200233 259.037140,112.959114 261.411530,114.965759 
	C262.788727,116.394325 263.887299,117.668503 264.915924,119.663956 
	C264.567444,121.496460 264.047699,122.607269 264.045776,123.718964 
	C263.998077,151.402847 263.960358,179.087097 264.131134,206.769989 
	C264.139893,208.186722 266.021240,209.591919 267.036621,211.355499 
	C262.676941,216.350433 258.096039,220.815094 254.053757,225.723343 
	C252.481384,227.632584 250.881683,230.990967 251.560516,232.870972 
	C252.247070,234.772324 255.737686,235.661163 258.000000,237.462585 
	C257.968231,250.696136 257.936432,263.460632 257.904633,276.225098 
	C256.830566,275.169434 255.756500,274.113800 254.321945,272.569458 
	C249.700150,266.781708 245.391937,261.519348 241.198044,256.167450 
	C239.207504,253.627289 237.435120,250.916183 235.926361,247.991348 
	C236.525833,246.254974 236.967865,244.809998 236.969681,243.364487 
	C237.009232,211.741531 237.018433,180.118500 236.958435,148.495605 
	C236.954422,146.376450 236.355942,144.258392 236.186951,141.826935 
	C237.800186,139.153122 239.615005,136.936951 240.649673,134.402298 
	C243.094910,128.412109 242.177872,125.996223 236.999588,122.538048 
	C237.004730,114.445030 237.009674,106.821083 237.014618,99.197144 
z"/>
<path fill="#FFDFE4" opacity="1.000000" stroke="none" 
	d="
M178.094757,379.019073 
	C177.729843,377.474518 177.047882,375.930298 177.046249,374.385345 
	C177.002014,332.508820 177.027435,290.632233 177.354706,248.461395 
	C180.775024,251.791519 183.881760,255.415924 187.122772,259.345947 
	C194.446625,268.466156 201.636215,277.280762 208.976776,286.400452 
	C212.179413,290.606201 215.190125,294.539825 218.291748,298.400360 
	C223.830566,305.294434 229.424271,312.144409 235.158905,319.306702 
	C237.217300,322.060699 239.111832,324.520813 241.006348,326.980957 
	C240.701950,331.555695 240.397552,336.130432 239.677124,340.853943 
	C234.954437,335.792755 230.647781,330.582794 226.203827,325.096558 
	C222.806778,320.563202 219.547043,316.306091 215.799469,311.411896 
	C214.313553,315.300049 213.280884,318.230469 212.084259,321.092346 
	C207.761902,331.429688 203.384399,341.743958 198.731750,352.215576 
	C191.655441,361.249146 184.875107,370.134125 178.094757,379.019073 
z"/>
<path fill="#FE6989" opacity="1.000000" stroke="none" 
	d="
M267.030701,211.002487 
	C266.021240,209.591919 264.139893,208.186722 264.131134,206.769989 
	C263.960358,179.087097 263.998077,151.402847 264.045776,123.718964 
	C264.047699,122.607269 264.567444,121.496460 265.025055,119.954956 
	C276.244446,130.062134 289.369476,138.795547 295.112335,154.316055 
	C294.463684,157.108688 293.165680,159.559708 293.100494,162.043091 
	C292.851685,171.521240 292.934906,181.010559 293.044556,190.493973 
	C293.072906,192.947388 293.649109,195.394470 293.618378,198.364243 
	C289.863312,199.573166 288.802155,201.884750 288.859741,205.072662 
	C288.919586,208.383057 288.491272,211.747375 288.937622,214.997299 
	C290.317780,225.045624 287.257477,233.280182 280.239899,240.560684 
	C275.807129,245.159485 277.103363,249.307022 283.001038,252.561401 
	C283.000336,268.884552 283.040558,284.745483 282.945587,300.605591 
	C282.934540,302.453400 282.175842,304.296753 281.763794,306.142151 
	C278.910828,302.677673 276.057861,299.213196 273.093811,294.959839 
	C272.988434,272.882141 273.028564,251.593216 272.938873,230.304810 
	C272.931152,228.474869 272.062622,226.648529 271.753235,224.514404 
	C274.251343,220.911865 278.426697,217.713516 278.608887,214.301926 
	C279.368835,200.071030 278.969635,185.775818 278.899353,171.504654 
	C278.880981,167.773911 276.695282,165.355072 273.047363,165.474579 
	C269.522064,165.590088 267.406281,167.993118 267.161194,171.676956 
	C267.084229,172.833771 267.139038,173.999420 267.135590,175.161026 
	C267.100403,187.108185 267.065613,199.055328 267.030701,211.002487 
z"/>
<path fill="#FE778A" opacity="1.000000" stroke="none" 
	d="
M226.341125,325.372864 
	C230.647781,330.582794 234.954437,335.792755 239.497986,341.270081 
	C242.848984,354.398376 245.567993,367.373718 249.246185,380.071167 
	C251.047226,386.288544 254.741928,391.941803 257.327972,397.958496 
	C257.954590,399.416443 258.300079,401.786255 257.543701,402.902588 
	C255.050964,406.581451 251.993805,409.877869 248.930573,413.577698 
	C241.119125,413.841766 233.530457,413.849365 225.474243,413.342957 
	C224.966217,400.115387 224.925766,387.401794 225.104584,374.428040 
	C229.194366,369.801788 229.136581,367.905121 225.007370,363.415222 
	C225.002991,352.664154 224.923904,342.372955 225.061020,332.084625 
	C225.090897,329.842072 225.894073,327.609833 226.341125,325.372864 
z"/>
<path fill="#FE6D89" opacity="1.000000" stroke="none" 
	d="
M258.270935,296.377777 
	C268.671204,308.578522 280.490448,319.956879 283.850586,336.518402 
	C284.595856,340.191895 283.792999,344.353638 282.985504,348.137482 
	C279.694977,363.556122 276.132294,378.916779 272.640472,394.292114 
	C272.464447,395.067291 272.014435,395.780243 271.600983,396.731659 
	C265.777893,393.870422 262.709717,389.066162 261.257965,383.245544 
	C259.249939,375.194611 257.593475,367.055969 256.091644,358.266663 
	C256.597931,349.955505 256.768890,342.331635 257.006836,334.709839 
	C257.405731,321.931793 257.847321,309.155060 258.270935,296.377777 
z"/>
<path fill="#FE7389" opacity="1.000000" stroke="none" 
	d="
M258.181030,296.090240 
	C257.847321,309.155060 257.405731,321.931793 257.006836,334.709839 
	C256.768890,342.331635 256.597931,349.955505 256.055328,357.863708 
	C254.778915,354.634247 254.375198,350.858063 252.800095,347.658569 
	C249.382812,340.717102 245.366791,334.070374 241.300964,327.142029 
	C239.111832,324.520813 237.217300,322.060699 235.160553,318.836914 
	C234.998886,304.499084 234.931839,290.924316 235.053574,277.351227 
	C235.079834,274.422852 235.786316,271.500610 236.439850,268.804810 
	C241.459290,274.692352 246.218369,280.350555 251.102203,286.312683 
	C252.422409,287.801208 253.617844,288.985840 254.798782,290.200806 
	C254.784271,290.231140 254.769272,290.296692 254.769257,290.296692 
	C255.876541,292.132019 256.983826,293.967377 258.181030,296.090240 
z"/>
<path fill="#FFDCE2" opacity="1.000000" stroke="none" 
	d="
M250.977448,286.008789 
	C246.218369,280.350555 241.459290,274.692352 236.349701,268.500916 
	C227.979965,257.990326 219.960754,248.012924 211.820404,237.717316 
	C209.959000,235.933807 208.437134,233.965332 206.437561,233.097443 
	C200.399673,230.476761 194.176254,228.283539 188.006409,225.724854 
	C187.987686,225.526016 187.958115,225.127670 187.958115,225.127670 
	C188.306641,221.708771 188.655167,218.289856 189.378098,214.456055 
	C195.158539,216.060745 200.564590,218.080307 206.214462,220.343719 
	C213.577774,222.697571 218.724335,227.308594 223.111633,233.147003 
	C227.032608,238.364853 231.395828,243.250351 235.563904,248.282501 
	C237.435120,250.916183 239.207504,253.627289 241.198044,256.167450 
	C245.391937,261.519348 249.700150,266.781708 254.048859,272.393738 
	C255.699997,275.802399 257.486206,278.811005 258.745514,282.025940 
	C259.523041,284.010864 259.868469,286.353302 259.625397,288.444244 
	C259.543945,289.144684 257.042236,289.563690 255.208038,290.204041 
	C254.769272,290.296692 254.784271,290.231140 254.858963,289.790222 
	C255.409348,286.110657 253.375641,285.843903 250.977448,286.008789 
z"/>
<path fill="#FE6689" opacity="1.000000" stroke="none" 
	d="
M281.880188,306.463531 
	C282.175842,304.296753 282.934540,302.453400 282.945587,300.605591 
	C283.040558,284.745483 283.000336,268.884552 283.360016,252.499939 
	C285.416168,250.845444 287.386841,249.972488 288.747101,248.525635 
	C290.944702,246.188156 292.740692,243.473083 294.706299,240.917480 
	C295.469849,242.145889 296.894806,243.371567 296.899963,244.603165 
	C297.020660,273.512756 296.993408,302.423004 296.954681,331.333099 
	C296.953644,332.111084 296.523682,332.888458 295.925568,333.940155 
	C293.730804,329.412659 292.246521,324.441986 289.981079,319.857330 
	C287.728119,315.297974 284.690216,311.126495 281.880188,306.463531 
z"/>
<path fill="#FE6D89" opacity="1.000000" stroke="none" 
	d="
M271.593994,224.820496 
	C272.062622,226.648529 272.931152,228.474869 272.938873,230.304810 
	C273.028564,251.593216 272.988434,272.882141 272.965363,294.651489 
	C267.990509,289.041718 263.032928,282.951416 257.989990,276.543121 
	C257.936432,263.460632 257.968231,250.696136 258.282562,237.286469 
	C262.908081,232.701004 267.251038,228.760757 271.593994,224.820496 
z"/>
<path fill="#FE6689" opacity="1.000000" stroke="none" 
	d="
M294.931824,348.350372 
	C295.724579,348.978302 296.880463,349.952301 296.885864,350.932617 
	C297.003479,372.227203 296.992920,393.522461 297.012390,415.260864 
	C294.356934,415.779266 291.695343,415.939453 289.035583,415.912964 
	C282.161407,415.844513 279.905243,413.052307 281.412506,406.495331 
	C284.763641,391.917206 288.150574,377.347351 291.519989,362.773468 
	C292.604340,358.083191 293.679626,353.390808 294.931824,348.350372 
z"/>
<path fill="#FE7F8A" opacity="1.000000" stroke="none" 
	d="
M224.885315,374.688232 
	C224.925766,387.401794 224.966217,400.115387 225.012100,413.272156 
	C216.993866,413.760223 208.970200,413.805115 200.477509,413.338745 
	C200.005661,395.191193 200.042648,377.554718 199.956726,359.918793 
	C199.943970,357.300049 199.351822,354.684174 199.027725,352.066956 
	C203.384399,341.743958 207.761902,331.429688 212.084259,321.092346 
	C213.280884,318.230469 214.313553,315.300049 215.799469,311.411896 
	C219.547043,316.306091 222.806778,320.563202 226.203812,325.096558 
	C225.894073,327.609833 225.090897,329.842072 225.061020,332.084625 
	C224.923904,342.372955 225.002991,352.664154 224.659439,363.408264 
	C219.446381,363.340759 216.913925,365.163086 216.958160,369.155731 
	C217.002609,373.165985 219.603531,374.981201 224.885315,374.688232 
M204.749451,385.202148 
	C202.040909,388.412048 201.930130,391.620941 205.461151,394.114655 
	C208.125290,395.996124 211.152847,395.427216 212.737305,392.600098 
	C213.611984,391.039429 213.799591,388.330139 213.024918,386.770477 
	C211.498627,383.697662 208.573318,383.125244 204.749451,385.202148 
z"/>
<path fill="#FE888C" opacity="1.000000" stroke="none" 
	d="
M198.731750,352.215576 
	C199.351822,354.684174 199.943970,357.300049 199.956726,359.918793 
	C200.042648,377.554718 200.005661,395.191193 200.015442,413.270020 
	C196.319168,413.798126 192.615967,413.883759 188.453522,414.020447 
	C184.524765,414.027344 181.055237,413.980927 177.585663,413.939392 
	C170.432877,413.853668 168.252838,411.027039 170.315216,404.338226 
	C172.842072,396.143005 175.457428,387.975037 178.064636,379.407166 
	C184.875107,370.134125 191.655441,361.249146 198.731750,352.215576 
z"/>
<path fill="#FE858B" opacity="1.000000" stroke="none" 
	d="
M184.015579,98.277298 
	C184.760925,98.196419 185.506287,98.115540 186.624054,97.985626 
	C193.693207,98.002800 200.389938,98.069008 207.546509,98.653900 
	C208.003738,105.455147 208.001114,111.737701 207.562836,118.060127 
	C204.981415,118.183418 202.371582,117.533485 200.801712,118.526924 
	C198.600876,119.919647 196.020737,122.370293 195.692108,124.667290 
	C195.225128,127.931450 198.103287,129.813538 201.557098,129.945557 
	C203.706192,130.027725 205.857315,130.056488 208.005280,130.508240 
	C208.006577,132.502121 208.010117,134.096985 207.643738,135.786530 
	C205.531235,137.746521 202.670883,139.466949 202.404312,141.523560 
	C202.195877,143.131668 205.142731,145.216476 206.821899,146.960144 
	C207.324127,147.481674 208.278732,147.567551 209.018463,148.318054 
	C209.010925,152.126007 209.011002,155.468933 208.585785,158.888077 
	C200.099335,159.709732 192.038177,160.455154 183.985107,160.712646 
	C184.000671,139.575592 184.008118,118.926445 184.015579,98.277298 
z"/>
<path fill="#FE7C8A" opacity="1.000000" stroke="none" 
	d="
M207.998505,118.020248 
	C208.001114,111.737701 208.003738,105.455147 208.009766,98.730110 
	C214.385757,98.508965 220.758331,98.730309 227.562424,98.898674 
	C230.704742,98.898735 233.415543,98.951775 236.570480,99.100983 
	C237.009674,106.821083 237.004730,114.445030 236.632889,122.577744 
	C234.223312,125.159645 232.180923,127.233093 230.137848,129.305832 
	C227.964035,131.511200 226.058777,135.149078 223.558578,135.618744 
	C218.549149,136.559830 213.214218,135.768188 208.013657,135.691833 
	C208.010117,134.096985 208.006577,132.502121 208.428848,130.460831 
	C209.854202,129.998779 210.854980,130.009995 211.853012,129.962769 
	C215.544205,129.788055 217.867020,128.016342 217.996613,124.180313 
	C218.132141,120.167488 215.417465,118.705910 211.989532,118.178162 
	C210.682083,117.976875 209.330154,118.064362 207.998505,118.020248 
z"/>
<path fill="#FD3E84" opacity="1.000000" stroke="none" 
	d="
M395.002808,234.114288 
	C400.490753,235.401321 405.996948,236.616241 411.460388,238.000061 
	C415.260437,238.962555 417.105560,241.163437 417.094238,245.494370 
	C416.966339,294.420624 417.020630,343.347321 417.004578,392.273895 
	C417.002533,398.452789 415.223877,400.163635 408.908020,400.198792 
	C404.248718,400.224762 399.588989,400.172913 394.464233,399.627625 
	C393.999329,348.549683 393.974609,297.999817 394.043518,247.450104 
	C394.049591,243.004410 394.668518,238.559540 395.002808,234.114288 
z"/>
<path fill="#FD4585" opacity="1.000000" stroke="none" 
	d="
M394.654968,233.940002 
	C394.668518,238.559540 394.049591,243.004410 394.043518,247.450104 
	C393.974609,297.999817 393.999329,348.549683 393.998169,399.572266 
	C387.974915,400.078156 381.952545,400.111267 375.464783,399.618896 
	C374.999603,348.654907 374.963043,298.216278 375.047882,247.777863 
	C375.058167,241.662567 375.723297,235.548355 376.084961,229.433640 
	C377.126160,229.599030 378.167389,229.764404 379.604065,229.910187 
	C384.768707,231.182312 389.537933,232.474014 394.654968,233.940002 
z"/>
<path fill="#FD4B85" opacity="1.000000" stroke="none" 
	d="
M375.777161,229.269562 
	C375.723297,235.548355 375.058167,241.662567 375.047882,247.777863 
	C374.963043,298.216278 374.999603,348.654907 374.998718,399.565674 
	C371.627441,400.115387 368.256805,400.192932 364.438782,400.380035 
	C363.247498,400.436523 362.503601,400.383453 361.056549,400.309143 
	C359.634979,400.342987 358.916504,400.398041 358.143890,399.958679 
	C358.100586,341.401794 358.111420,283.339294 358.122284,225.276825 
	C363.904633,226.553040 369.687012,227.829269 375.777161,229.269562 
z"/>
<path fill="#FF938C" opacity="1.000000" stroke="none" 
	d="
M171.966187,207.236618 
	C158.271973,206.025055 145.222641,203.289413 136.036957,191.339844 
	C136.504196,188.983582 136.953445,187.230042 136.966782,185.473206 
	C137.044266,175.264175 137.019257,165.054382 137.028900,154.844833 
	C139.104324,155.551849 141.179749,156.258865 143.845474,157.276215 
	C153.976089,161.711838 163.516373,165.837143 172.757751,170.261520 
	C172.294632,182.785950 172.130417,195.011276 171.966187,207.236618 
z"/>
<path fill="#FF948C" opacity="1.000000" stroke="none" 
	d="
M134.034805,98.405777 
	C143.432358,98.410492 152.829926,98.415199 162.610580,99.080658 
	C162.999924,117.435417 163.006165,135.129425 162.665817,152.745178 
	C156.567276,150.396591 150.815338,148.126251 145.063385,145.855927 
	C141.612305,144.255920 138.161224,142.655914 134.358139,140.508423 
	C134.343262,136.280502 134.680374,132.600052 135.372375,129.067444 
	C141.341217,131.975784 146.966049,132.328598 152.277176,128.678589 
	C154.884735,126.886581 155.727097,124.141792 153.975235,121.224442 
	C152.339722,118.500832 150.072083,117.481400 146.782913,118.683189 
	C145.115051,119.292603 143.111954,119.005219 141.258682,119.080963 
	C139.195236,119.165314 137.129822,119.201553 135.003265,118.827774 
	C134.639114,111.733139 134.336960,105.069466 134.034805,98.405777 
z"/>
<path fill="#FF9F8E" opacity="1.000000" stroke="none" 
	d="
M135.017502,128.919617 
	C134.680374,132.600052 134.343262,136.280502 134.010956,140.397430 
	C121.923767,140.833908 109.831779,140.833908 97.502098,140.833908 
	C96.175163,133.038559 97.198212,126.359215 102.781647,120.806480 
	C106.787437,116.822739 110.861130,112.890366 114.626740,108.686264 
	C119.456581,103.293999 125.311485,99.873421 132.669128,98.184830 
	C133.177734,98.073425 133.353638,98.126495 133.782166,98.292679 
	C134.336960,105.069466 134.639114,111.733139 134.834106,119.128326 
	C132.312103,122.960320 132.485367,125.977798 135.017502,128.919617 
z"/>
<path fill="#FF9E8D" opacity="1.000000" stroke="none" 
	d="
M136.783936,154.584167 
	C137.019257,165.054382 137.044266,175.264175 136.966782,185.473206 
	C136.953445,187.230042 136.504196,188.983582 135.885101,191.034027 
	C132.537354,189.007706 129.560791,186.686005 126.277992,184.244797 
	C118.572800,177.699509 110.939392,171.517761 103.881454,164.737030 
	C100.718414,161.698227 98.708275,157.459396 96.174965,153.765121 
	C96.564270,153.190842 96.953568,152.616547 97.342873,152.042267 
	C99.564133,152.042267 101.785393,152.043655 104.006653,152.042007 
	C111.333282,152.036575 118.671127,151.788605 125.981720,152.127975 
	C129.527145,152.292557 133.021500,153.557007 136.783936,154.584167 
z"/>
<path fill="#FFE0E5" opacity="1.000000" stroke="none" 
	d="
M145.043060,146.315918 
	C150.815338,148.126251 156.567276,150.396591 162.981613,152.932739 
	C170.421661,155.865906 177.199341,158.533249 183.977005,161.200592 
	C192.038177,160.455154 200.099335,159.709732 209.013123,158.927032 
	C210.360550,158.884094 210.858047,158.909973 211.349716,158.867767 
	C215.026672,158.552109 217.648529,159.903351 217.908264,163.814255 
	C218.179169,167.893616 215.682587,169.675751 211.840958,170.057755 
	C209.881943,170.252548 207.950043,170.720123 205.569336,171.030579 
	C203.324646,171.178116 201.515274,171.347946 199.708603,171.542816 
	C190.735504,172.510635 181.684692,174.809082 173.056671,169.962433 
	C163.516373,165.837143 153.976089,161.711838 144.207642,157.324478 
	C144.327225,153.633575 144.674973,150.204758 145.043060,146.315918 
z"/>
<path fill="#FE878B" opacity="1.000000" stroke="none" 
	d="
M172.757751,170.261520 
	C181.684692,174.809082 190.735504,172.510635 199.708603,171.542816 
	C201.515274,171.347946 203.324646,171.178116 205.567322,171.493256 
	C205.991455,188.026474 205.981049,204.063187 205.970627,220.099884 
	C200.564590,218.080307 195.158539,216.060745 189.380707,214.004974 
	C183.535355,211.835098 178.061829,209.701416 172.277252,207.402191 
	C172.130417,195.011276 172.294632,182.785950 172.757751,170.261520 
z"/>
<path fill="#FE8B8C" opacity="1.000000" stroke="none" 
	d="
M187.586151,225.068466 
	C187.958115,225.127670 187.987686,225.526016 187.987457,226.154541 
	C187.658157,229.562881 187.091248,232.338730 187.045120,235.123215 
	C186.913071,243.093719 186.992325,251.067719 186.988495,259.040344 
	C183.881760,255.415924 180.775024,251.791519 177.383301,247.980621 
	C172.271652,240.135269 168.573700,232.107086 168.915680,222.759460 
	C168.945877,221.933929 168.961746,221.104660 169.061722,220.286591 
	C169.098404,219.986267 169.359726,219.713394 169.905914,218.732101 
	C175.585815,220.792023 181.399994,222.900635 187.586151,225.068466 
z"/>
<path fill="#FD5186" opacity="1.000000" stroke="none" 
	d="
M357.874695,225.064209 
	C358.111420,283.339294 358.100586,341.401794 358.065002,400.250183 
	C357.459381,402.365051 356.878448,403.694000 356.297485,405.022980 
	C355.813110,405.879211 355.162933,406.682678 354.870728,407.600098 
	C352.658905,414.544189 347.918945,417.117340 340.446350,415.326416 
	C340.003418,353.039093 339.986877,291.271576 340.045837,229.504135 
	C340.048645,226.555420 340.719025,223.607346 341.078522,220.658966 
	C343.445435,221.123825 345.812378,221.588715 348.583313,222.059219 
	C351.867249,222.993774 354.747162,223.922684 357.874695,225.064209 
z"/>
<path fill="#FE5A87" opacity="1.000000" stroke="none" 
	d="
M317.357758,363.196777 
	C316.572052,361.529999 315.103516,359.864716 315.099762,358.196198 
	C314.979553,304.705383 314.994202,251.214218 315.036896,197.723160 
	C315.038055,196.273361 315.571136,194.823975 316.037109,192.944550 
	C318.996490,197.340866 321.698608,202.213394 324.588806,206.971680 
	C325.846069,209.041504 327.489594,210.876694 329.015961,213.607513 
	C328.716339,217.354019 328.030304,220.313690 328.050293,223.268555 
	C328.310547,261.721497 328.670929,300.173706 328.615601,338.726135 
	C324.482880,338.892212 323.038788,340.906799 322.957062,344.524841 
	C322.859436,348.847290 325.695190,349.679413 329.003021,350.587097 
	C328.667572,360.482025 328.171570,369.955231 328.040680,379.433411 
	C327.873871,391.517181 328.002167,403.605011 328.003235,415.691101 
	C323.975739,415.744019 319.948273,415.796906 315.463226,415.768250 
	C315.003784,403.711060 314.938263,391.734741 315.067383,379.760498 
	C315.087158,377.927307 316.005463,376.103821 317.265686,374.113525 
	C320.427704,372.987091 323.190277,372.448822 325.073944,370.865112 
	C325.916687,370.156616 325.685181,366.365326 324.733582,365.699829 
	C322.690674,364.271057 319.863708,363.963440 317.357758,363.196777 
z"/>
<path fill="#FE5686" opacity="1.000000" stroke="none" 
	d="
M329.006104,338.626129 
	C328.670929,300.173706 328.310547,261.721497 328.050293,223.268555 
	C328.030304,220.313690 328.716339,217.354019 329.113586,213.913910 
	C332.949005,215.700684 336.745087,217.970108 340.809814,220.449249 
	C340.719025,223.607346 340.048645,226.555420 340.045837,229.504135 
	C339.986877,291.271576 340.003418,353.039093 340.009033,415.249573 
	C336.312958,415.746643 332.612915,415.800720 328.458069,415.772949 
	C328.002167,403.605011 327.873871,391.517181 328.040680,379.433411 
	C328.171570,369.955231 328.667572,360.482025 329.364197,350.494202 
	C331.152161,347.890411 333.648712,345.806641 333.663544,343.705383 
	C333.675385,342.023346 330.671509,340.320007 329.006104,338.626129 
z"/>
<path fill="#FFCDD5" opacity="1.000000" stroke="none" 
	d="
M356.661621,405.015625 
	C356.878448,403.694000 357.459381,402.365051 358.119202,400.744568 
	C358.916504,400.398041 359.634979,400.342987 360.696045,400.417664 
	C361.197876,403.380859 360.270111,405.236542 356.661621,405.015625 
z"/>
<path fill="#FF8C8B" opacity="1.000000" stroke="none" 
	d="
M183.985107,160.712662 
	C177.199341,158.533249 170.421661,155.865906 163.328201,153.011002 
	C163.006165,135.129425 162.999924,117.435417 162.988190,99.246338 
	C169.688065,98.539444 176.393448,98.327629 183.557205,98.196556 
	C184.008118,118.926445 184.000671,139.575592 183.985107,160.712662 
z"/>
<path fill="#FFD5DC" opacity="1.000000" stroke="none" 
	d="
M294.833740,240.586212 
	C292.740692,243.473083 290.944702,246.188156 288.747101,248.525635 
	C287.386841,249.972488 285.416168,250.845444 283.360596,252.037476 
	C277.103363,249.307022 275.807129,245.159485 280.239899,240.560684 
	C287.257477,233.280182 290.317780,225.045624 288.937622,214.997299 
	C288.491272,211.747375 288.919586,208.383057 288.859741,205.072662 
	C288.802155,201.884750 289.863312,199.573166 293.638489,198.764740 
	C298.449677,199.158401 300.193848,201.716949 300.073669,206.084000 
	C299.914764,211.857788 299.733490,217.659500 300.117645,223.412079 
	C300.543762,229.793213 299.483612,235.495728 294.833740,240.586212 
z"/>
<path fill="#FFCFD7" opacity="1.000000" stroke="none" 
	d="
M317.135529,363.467102 
	C319.863708,363.963440 322.690674,364.271057 324.733582,365.699829 
	C325.685181,366.365326 325.916687,370.156616 325.073944,370.865112 
	C323.190277,372.448822 320.427704,372.987091 317.629211,373.918121 
	C313.967529,370.602753 313.045441,367.246063 317.135529,363.467102 
z"/>
<path fill="#FE7C8A" opacity="1.000000" stroke="none" 
	d="
M206.214462,220.343719 
	C205.981049,204.063187 205.991455,188.026474 206.003876,171.527084 
	C207.950043,170.720123 209.881943,170.252548 211.840958,170.057755 
	C215.682587,169.675751 218.179169,167.893616 217.908264,163.814255 
	C217.648529,159.903351 215.026672,158.552109 211.349716,158.867767 
	C210.858047,158.909973 210.360550,158.884094 209.438416,158.850800 
	C209.011002,155.468933 209.010925,152.126007 209.484299,148.333405 
	C219.199249,148.463486 228.421005,148.953491 236.033951,142.139832 
	C236.355942,144.258392 236.954422,146.376450 236.958435,148.495605 
	C237.018433,180.118500 237.009232,211.741531 236.969681,243.364487 
	C236.967865,244.809998 236.525833,246.254974 235.926361,247.991348 
	C231.395828,243.250351 227.032608,238.364853 223.111633,233.147003 
	C218.724335,227.308594 213.577774,222.697571 206.214462,220.343719 
z"/>
<path fill="#FFD5DC" opacity="1.000000" stroke="none" 
	d="
M271.753235,224.514389 
	C267.251038,228.760757 262.908081,232.701004 258.282562,236.817398 
	C255.737686,235.661163 252.247070,234.772324 251.560516,232.870972 
	C250.881683,230.990967 252.481384,227.632584 254.053757,225.723343 
	C258.096039,220.815094 262.676941,216.350433 267.036621,211.355499 
	C267.065613,199.055328 267.100403,187.108185 267.135590,175.161026 
	C267.139038,173.999420 267.084229,172.833771 267.161194,171.676956 
	C267.406281,167.993118 269.522064,165.590088 273.047363,165.474579 
	C276.695282,165.355072 278.880981,167.773911 278.899353,171.504654 
	C278.969635,185.775818 279.368835,200.071030 278.608887,214.301926 
	C278.426697,217.713516 274.251343,220.911865 271.753235,224.514389 
z"/>
<path fill="#FFDBE1" opacity="1.000000" stroke="none" 
	d="
M236.186951,141.826935 
	C228.421005,148.953491 219.199249,148.463486 209.491913,147.868378 
	C208.278732,147.567551 207.324127,147.481674 206.821899,146.960144 
	C205.142731,145.216476 202.195877,143.131668 202.404312,141.523560 
	C202.670883,139.466949 205.531235,137.746521 207.643738,135.786530 
	C213.214218,135.768188 218.549149,136.559830 223.558578,135.618744 
	C226.058777,135.149078 227.964035,131.511200 230.137848,129.305832 
	C232.180923,127.233093 234.223312,125.159645 236.632690,123.046814 
	C242.177872,125.996223 243.094910,128.412109 240.649673,134.402298 
	C239.615005,136.936951 237.800186,139.153122 236.186951,141.826935 
z"/>
<path fill="#FE7C8A" opacity="1.000000" stroke="none" 
	d="
M211.941528,238.035522 
	C219.960754,248.012924 227.979965,257.990326 236.089325,268.271606 
	C235.786316,271.500610 235.079834,274.422852 235.053574,277.351227 
	C234.931839,290.924316 234.998886,304.499084 234.996674,318.543030 
	C229.424271,312.144409 223.830566,305.294434 218.291748,298.400360 
	C215.190125,294.539825 212.179413,290.606201 209.297668,286.109131 
	C209.645065,283.718567 209.969528,281.924896 209.976257,280.130066 
	C210.021759,268.000702 209.915970,255.869873 210.086838,243.742737 
	C210.113754,241.831985 211.294357,239.937515 211.941528,238.035522 
z"/>
<path fill="#FE848B" opacity="1.000000" stroke="none" 
	d="
M211.820404,237.717316 
	C211.294357,239.937515 210.113754,241.831985 210.086838,243.742737 
	C209.915970,255.869873 210.021759,268.000702 209.976257,280.130066 
	C209.969528,281.924896 209.645065,283.718567 209.146713,285.804077 
	C201.636215,277.280762 194.446625,268.466156 187.122772,259.345947 
	C186.992325,251.067719 186.913071,243.093719 187.045120,235.123215 
	C187.091248,232.338730 187.658157,229.562881 188.006195,226.353394 
	C194.176254,228.283539 200.399673,230.476761 206.437561,233.097443 
	C208.437134,233.965332 209.959000,235.933807 211.820404,237.717316 
z"/>
<path fill="#FFDAE0" opacity="1.000000" stroke="none" 
	d="
M225.104584,374.428040 
	C219.603531,374.981201 217.002609,373.165985 216.958160,369.155731 
	C216.913925,365.163086 219.446381,363.340759 224.662323,363.869141 
	C229.136581,367.905121 229.194366,369.801788 225.104584,374.428040 
z"/>
<path fill="#FFD8DE" opacity="1.000000" stroke="none" 
	d="
M251.102203,286.312683 
	C253.375641,285.843903 255.409348,286.110657 254.873474,289.759918 
	C253.617844,288.985840 252.422409,287.801208 251.102203,286.312683 
z"/>
<path fill="#FFDCE2" opacity="1.000000" stroke="none" 
	d="
M205.084290,384.982788 
	C208.573318,383.125244 211.498627,383.697662 213.024918,386.770477 
	C213.799591,388.330139 213.611984,391.039429 212.737305,392.600098 
	C211.152847,395.427216 208.125290,395.996124 205.461151,394.114655 
	C201.930130,391.620941 202.040909,388.412048 205.084290,384.982788 
z"/>
<path fill="#FFDAE0" opacity="1.000000" stroke="none" 
	d="
M207.562836,118.060127 
	C209.330154,118.064362 210.682083,117.976875 211.989532,118.178162 
	C215.417465,118.705910 218.132141,120.167488 217.996613,124.180313 
	C217.867020,128.016342 215.544205,129.788055 211.853012,129.962769 
	C210.854980,130.009995 209.854202,129.998779 208.431107,130.061798 
	C205.857315,130.056488 203.706192,130.027725 201.557098,129.945557 
	C198.103287,129.813538 195.225128,127.931450 195.692108,124.667290 
	C196.020737,122.370293 198.600876,119.919647 200.801712,118.526924 
	C202.371582,117.533485 204.981415,118.183418 207.562836,118.060127 
z"/>
<path fill="#FFE3E7" opacity="1.000000" stroke="none" 
	d="
M135.372375,129.067444 
	C132.485367,125.977798 132.312103,122.960320 134.896088,119.559280 
	C137.129822,119.201553 139.195236,119.165314 141.258682,119.080963 
	C143.111954,119.005219 145.115051,119.292603 146.782913,118.683189 
	C150.072083,117.481400 152.339722,118.500832 153.975235,121.224442 
	C155.727097,124.141792 154.884735,126.886581 152.277176,128.678589 
	C146.966049,132.328598 141.341217,131.975784 135.372375,129.067444 
z"/>
<path fill="#FFCFD7" opacity="1.000000" stroke="none" 
	d="
M328.615601,338.726135 
	C330.671509,340.320007 333.675385,342.023346 333.663544,343.705383 
	C333.648712,345.806641 331.152161,347.890411 329.365906,350.074646 
	C325.695190,349.679413 322.859436,348.847290 322.957062,344.524841 
	C323.038788,340.906799 324.482880,338.892212 328.615601,338.726135 
z"/>
</svg>